<?xml version="1.0" standalone="no"?>
<!DOCTYPE svg PUBLIC "-//W3C//DTD SVG 20010904//EN"
 "http://www.w3.org/TR/2001/REC-SVG-20010904/DTD/svg10.dtd">
<svg version="1.0" xmlns="http://www.w3.org/2000/svg"
 width="57" height="57" viewBox="0 0 739.000000 740.000000"
 preserveAspectRatio="xMidYMid meet">
<metadata>
Created by potrace 1.16, written by Peter Selinger 2001-2019
</metadata>
<g transform="translate(0.000000,740.000000) scale(0.100000,-0.100000)"
fill="#000000" stroke="none">
<path d="M3446 7390 c-760 -53 -1470 -329 -2064 -802 -156 -124 -458 -426
-571 -569 -188 -240 -322 -451 -441 -694 -177 -365 -285 -724 -347 -1155 -25
-181 -25 -760 0 -940 102 -715 345 -1285 788 -1849 114 -145 417 -447 572
-570 569 -451 1223 -716 1957 -793 150 -15 564 -15 710 1 777 84 1443 366
2035 860 184 154 413 398 570 606 929 1239 981 2949 130 4244 -231 351 -534
675 -870 927 -525 395 -1159 646 -1814 719 -174 19 -491 26 -655 15z m699
-164 c822 -117 1539 -477 2095 -1052 1046 -1080 1303 -2686 645 -4029 -46 -93
-113 -219 -150 -280 -531 -877 -1428 -1492 -2425 -1664 -241 -42 -300 -46
-620 -46 -342 0 -429 8 -710 65 -916 184 -1738 742 -2257 1532 -783 1192 -778
2725 12 3913 594 893 1552 1467 2625 1574 142 14 653 6 785 -13z"/>
<path d="M3375 7129 c-408 -37 -864 -168 -1226 -349 -488 -246 -937 -630
-1256 -1076 -119 -166 -295 -465 -282 -479 4 -3 678 308 1500 691 822 383
1500 698 1507 701 10 4 12 -31 10 -167 l-3 -173 -1312 -611 c-722 -336 -1312
-615 -1310 -619 1 -5 285 -140 629 -300 l627 -292 -178 -89 -178 -89 -699 326
c-385 179 -706 327 -714 329 -29 7 -148 -396 -189 -645 -31 -186 -41 -285 -48
-492 -26 -810 241 -1608 753 -2250 117 -147 411 -439 554 -549 329 -254 641
-424 1015 -552 613 -211 1295 -243 1928 -90 1340 323 2371 1433 2586 2786 33
203 41 322 41 560 0 302 -24 524 -85 787 -30 131 -126 433 -136 433 -5 0 -704
-324 -1554 -720 -851 -396 -1548 -720 -1551 -720 -2 0 -3 77 -2 171 l3 170
1312 611 c722 336 1310 614 1308 618 -2 3 -593 280 -1314 615 l-1311 610 0
172 0 172 73 -33 c39 -19 706 -329 1481 -690 775 -361 1411 -654 1413 -652 6
5 -89 177 -159 289 -322 515 -804 955 -1346 1230 -372 189 -706 293 -1132 352
-137 20 -605 28 -755 14z m396 -2018 c39 -39 40 -91 3 -128 -23 -23 -31 -25
-77 -20 l-52 5 -772 -391 -773 -392 0 -1212 c0 -667 4 -1213 8 -1213 8 0 32
-234 32 -313 0 -34 -2 -37 -42 -47 -44 -13 -94 -7 -121 13 -16 11 -16 25 -3
176 8 96 18 166 25 170 8 5 12 336 13 1245 l3 1238 803 405 c515 260 802 410
802 420 0 27 56 73 90 73 22 0 41 -9 61 -29z m-677 -1045 l536 -250 0 -168 c0
-92 -3 -168 -7 -168 -5 0 -329 149 -720 332 l-713 331 168 88 c92 49 175 87
184 86 9 -1 258 -114 552 -251z m-1371 121 l97 -46 0 -148 c0 -265 30 -490 91
-679 l29 -92 -2 -348 -3 -349 -70 105 c-172 260 -295 574 -350 893 -21 125
-35 350 -35 579 l0 197 73 -33 c39 -19 116 -54 170 -79z m4214 -327 c-5 -388
-11 -461 -61 -658 -221 -869 -952 -1511 -1835 -1613 -152 -17 -474 -7 -626 20
-434 77 -816 262 -1152 559 l-88 78 -3 264 -2 264 39 -53 c246 -330 591 -580
974 -706 554 -182 1135 -114 1595 188 428 280 700 691 798 1207 12 62 18 173
23 409 l6 323 165 77 165 77 3 -35 c2 -20 2 -200 -1 -401z m825 80 l138 0 0
-70 0 -70 -128 0 -128 0 -174 -75 c-96 -41 -175 -75 -176 -75 -1 0 -4 32 -6
70 l-3 70 98 32 c53 18 97 35 97 38 0 4 -45 19 -100 35 l-100 27 0 73 0 73
172 -64 171 -64 139 0z m-152 -420 c153 -27 283 -50 288 -50 8 0 -1 -74 -13
-116 -2 -8 -77 4 -237 37 -128 26 -234 46 -237 44 -5 -5 7 -10 249 -108 l206
-82 -8 -43 c-4 -23 -10 -47 -13 -52 -4 -6 -82 -10 -193 -11 -153 -1 -331 -12
-286 -18 104 -13 457 -71 461 -74 9 -10 -18 -117 -30 -117 -7 0 -143 23 -303
52 l-291 51 13 76 c24 136 -7 120 237 123 l212 3 -55 19 c-30 10 -119 43 -197
74 -111 42 -143 59 -143 73 0 16 9 68 26 147 2 12 11 22 20 22 8 0 141 -22
294 -50z m-377 -717 c-18 -45 -33 -87 -33 -92 0 -9 108 -57 113 -50 2 2 16 38
32 79 15 41 29 77 31 79 5 5 104 -30 104 -38 0 -3 -13 -42 -30 -84 -16 -43
-30 -80 -30 -81 0 -2 8 -6 18 -9 9 -2 40 -14 68 -25 l52 -21 33 87 c18 48 34
89 35 91 4 5 94 -31 100 -41 7 -10 -106 -298 -117 -298 -4 0 -133 50 -287 110
l-280 111 61 153 61 152 52 -20 51 -20 -34 -83z m-1846 -8 c-75 -66 -237 -141
-378 -175 -330 -79 -695 -20 -939 151 -33 23 -60 43 -60 45 0 2 316 4 703 4
l702 -1 -28 -24z m1746 -376 c99 -50 265 -168 287 -203 29 -49 34 -87 16 -131
-23 -53 -126 -215 -137 -215 -11 0 -475 295 -498 316 -11 10 -2 29 55 115 38
57 84 114 103 126 48 32 100 30 174 -8z m-217 -561 l265 -162 -47 -47 -48 -48
-50 36 -50 36 -43 -48 -43 -47 35 -43 c19 -24 35 -47 35 -52 0 -5 -20 -28 -44
-52 l-44 -43 -124 184 c-69 100 -147 217 -175 258 l-50 75 51 57 c28 32 55 58
60 58 4 0 127 -73 272 -162z m-496 -193 c21 -15 46 -38 56 -52 16 -25 15 -26
-12 -49 -62 -49 -71 -51 -107 -16 -35 34 -63 40 -89 20 -29 -23 -29 -52 -3
-102 37 -70 160 -232 191 -252 24 -16 29 -16 53 -3 37 21 40 69 7 119 l-25 38
55 38 c62 42 59 44 100 -41 45 -94 26 -163 -64 -232 -95 -72 -173 -66 -257 20
-65 67 -191 255 -205 307 -15 58 2 112 51 161 83 83 171 98 249 44z m-479
-261 c15 -7 39 -28 53 -45 36 -42 119 -216 146 -308 20 -64 21 -78 10 -115
-23 -77 -125 -146 -217 -146 -87 0 -139 58 -223 248 -65 146 -76 198 -55 248
20 49 50 81 100 107 75 38 127 41 186 11z m-2130 -85 l81 -23 -7 -120 c-4 -67
-13 -159 -20 -206 -12 -77 -10 -117 3 -81 9 27 161 326 174 343 12 16 18 16
97 -7 46 -14 86 -27 89 -29 9 -9 -160 -586 -172 -586 -24 0 -100 27 -103 37
-3 8 84 298 127 426 23 70 -14 10 -107 -170 -56 -109 -108 -206 -116 -216 -12
-17 -17 -18 -58 -6 -24 7 -45 13 -46 13 -1 1 7 111 17 246 10 135 17 246 15
249 -6 6 -10 -6 -65 -224 -27 -110 -52 -210 -56 -221 -6 -22 -7 -22 -62 -6
-32 8 -58 16 -60 18 -2 1 34 136 80 298 57 203 87 295 95 292 7 -3 49 -15 94
-27z m1723 -350 l83 -294 -61 -17 c-33 -10 -63 -14 -67 -10 -4 4 -41 129 -83
277 -42 149 -79 278 -82 287 -4 14 8 21 58 36 35 10 64 18 66 17 2 -2 40 -135
86 -296z m-931 195 c84 -7 88 -8 83 -28 -3 -12 -6 -36 -6 -55 l0 -34 -100 8
-101 7 3 -64 3 -63 50 -3 c28 -1 65 -4 83 -7 32 -6 32 -7 32 -62 l0 -56 -87 7
c-102 9 -103 8 -103 -81 l0 -63 43 0 c23 0 66 -3 95 -7 l54 -6 -7 -56 c-4 -31
-8 -56 -8 -57 -5 -3 -318 24 -322 27 -3 3 37 553 44 608 1 2 36 1 79 -2 42 -4
117 -9 165 -13z m477 10 c43 -9 95 -61 109 -109 19 -66 41 -235 41 -315 0 -92
-21 -133 -83 -160 -46 -20 -258 -54 -268 -42 -8 9 -81 593 -75 599 5 6 173 30
217 32 15 0 41 -2 59 -5z"/>
<path d="M5981 2294 c-17 -14 -31 -31 -31 -37 0 -7 76 -60 168 -119 165 -105
167 -106 185 -86 22 25 22 72 1 93 -43 42 -257 175 -283 175 -5 0 -23 -12 -40
-26z"/>
<path d="M5747 1775 l88 -115 34 35 c19 19 33 36 31 39 -19 17 -225 156 -232
156 -5 0 31 -52 79 -115z"/>
<path d="M4795 1290 c-26 -29 -16 -76 46 -214 61 -136 96 -181 131 -171 37 12
48 25 48 60 0 55 -125 327 -155 339 -29 11 -51 6 -70 -14z"/>
<path d="M3950 1053 c0 -36 49 -385 54 -390 3 -3 20 -2 38 3 50 15 59 44 48
150 -25 229 -36 254 -107 254 -25 0 -33 -4 -33 -17z"/>
</g>
</svg>
